<?xml version="1.0" encoding="UTF-8" standalone="no"?>
<svg
   viewBox="0 0 122.905 66.754767"
   version="1.1"
   id="svg3"
   width="122.905"
   height="66.754768"
   xmlns="http://www.w3.org/2000/svg"
   xmlns:svg="http://www.w3.org/2000/svg">
   <defs
      id="defs7" />
   <g transform="translate(0,-10) scale(1)">
      <path
         id="INAR"
         title="Arunachal Pradesh"
         d="m 96.584,1.93347 0.586,0.92992 -0.057,0.84731 1.267,1.78327 1.034,-0.0161 1.469,-1.19893 0.621,0.70122 -0.973,2.05429 -1.803,0.26094 -1.561,1.57472 -1.49,0.40803 0.751,0.58737 0.722,1.56062 -0.829,1.21403 0.445,0.75663 1.713,-0.88458 2.06,-2.14496 1.865,-0.12795 1.871,-1.00045 -1,2.04522 0.212,0.68812 0.654,-0.135 0.39,2.08249 1.644,2.52781 -0.628,1.36315 -2.37,0.79894 0.447,1.1959 -1.382,1.22008 -0.568,-0.17128 0.119,0.72339 -1.089,0.0826 -0.606,0.63472 0.991,1.12135 -2.287,1.75808 1.174,0.64984 1.07,-0.19445 0.596,1.18683 0.491,-0.15415 0.742,-1.62811 1.087,0.0222 1.452,-1.06794 1.779,-0.0645 1.81,1.05082 0.488,1.13746 1.63,0.13601 0.971,-0.41912 0.571,0.97526 1.478,0.68611 2.011,-1.27449 1.703,1.68353 2.264,0.54304 2.48,1.80443 -0.774,0.0957 -0.687,0.79693 0.172,1.03369 -0.653,1.00951 1.376,0.16322 0.074,0.74051 0.798,0.35665 -0.776,0.90171 0.229,2.13187 -1.421,0.16321 -0.261,-0.96014 -1.092,0.4846 -3.224,2.75551 -0.127,1.03067 -1.421,0.0191 -1.053,1.83062 -0.752,0.10478 -0.936,1.10422 0.839,2.14798 -0.541,1.59386 5.44,7.69325 -0.53,0.80096 -0.792,-0.43423 -0.775,0.28512 -1.819,-1.3571 -2.282,-0.63271 -0.257,-0.6055 0.558,-0.4161 -0.103,-0.73346 -0.489,-0.1078 -1.243,-1.9344 -1.88,-0.62061 -0.282,0.35867 -1.812,-0.0907 -1.888,1.78025 -1.08,-0.43625 -4.949,0.65185 -4.142,2.0956 -2.098,3.37108 -1.236,0.7657 -1.45,0.001 -1.615,3.12928 -1.202,-0.53397 -1.294,2.09257 -1.649,-0.23475 -2.175,3.08194 -2.644,1.03369 -1.359,-0.7113 v 0 l -0.449,-1.15156 0.601,-1.2221 -0.623,-0.25892 -0.136,-1.23016 -0.505,-0.33247 1.033,-0.61155 -0.803,-3.58065 v 0 l 1.104,0.29923 2.101,-1.75506 2.285,-0.72842 0.041,-1.83365 1.182,-1.30269 1.547,0.92287 4.526,-1.46792 1.134,-0.0584 0.701,0.73547 0.261,-0.68006 2.344,-1.79536 -0.85,-1.59789 -0.204,0.269 -0.38,-0.49468 -0.692,0.0443 -0.498,0.87753 -0.092,-0.89868 -0.445,0.63673 -0.377,-0.31131 0.842,-1.79435 -0.173,-1.11329 -0.868,-0.31635 -0.328,-0.86141 -0.776,-0.4836 0.3,-0.60551 -0.482,-0.55311 0.377,-0.37278 -0.801,-1.01958 0.62,-0.25893 -0.153,-0.38386 0.893,-1.21 2.18,-1.85077 1.05,-1.92936 -3.173,-0.21057 -4.587,0.46547 -1.901,1.80443 -2.755,0.94402 -1.42,-0.69114 -5.971,2.28601 -3.568,0.83622 -0.449,0.85234 -0.922,0.12896 -0.825,0.74756 -1.393,-0.0151 -0.144,0.4161 -4.663,2.17518 -0.602,-1.07399 -1.329,0.62364 -1.455,-0.65185 -0.46,0.25893 -0.498,-1.12638 -0.86,0.7123 0.949,1.26441 0.054,0.82413 -2.132,1.05283 -2.016,2.70614 -2.185,1.62509 -3.313,3.71767 0.569,0.42012 0.2,1.04478 -1.31,0.29922 -2.023,2.14799 -3.903,0.7657 -2.96,-0.58133 -6.879,1.09213 -2.126,-1.1153 -0.023,-0.48058 -0.926,-0.54203 -4.469,-0.72641 -0.416,0.4705 0.133,0.73145 -1.26,0.60248 -2.63,-0.0333 -1.253,0.87149 -0.977,-0.21863 -1.605,0.7788 -3.528,0.2025 v 0 l -0.095,-2.67994 -1.456,-1.34501 -0.218,-2.2981 0.97,-1.44576 -0.63,-1.01555 1.299,-0.0584 0.397,-0.43524 L 10.778,50.95219 10.687,49.23038 9.939,47.34837 8.278,47.80074 6.679,47.29296 3.686,47.57002 3.059,46.80432 2.166,47.23049 0.478,45.09359 0.674,44.30573 0.289,43.71131 1.671,41.99252 2.003,40.58907 1.763,39.74378 1.149,39.26925 0.451,39.40023 0,38.44613 l 2.47,-0.0645 0.997,1.06694 2.4,0.0695 0.761,1.74095 1.218,0.51785 1.363,-1.30168 1.498,0.25792 3.244,-2.36863 1.123,0.0252 1.088,1.89006 1.336,-0.39796 0.566,-0.64177 1.006,0.44632 0.972,-0.90675 1.243,0.48561 0.928,-1.34098 1.343,-0.53598 1.471,-2.12078 -1.602,-1.74398 0.503,-1.49815 2.358,-1.81954 0.561,0.71935 1.441,-0.77577 1.45,-1.36213 0.75,0.73849 0.699,-0.76973 -0.212,-0.9551 4.089,-0.72742 0.263,-1.59688 -1.023,-0.93697 1.953,-1.54752 0.614,-1.46691 -0.113,-0.79593 0.582,-0.20955 0.193,-0.76167 2.276,-0.85738 0.598,0.53599 0.354,-0.7254 0.895,0.60047 1.805,0.0272 2.334,-0.75462 0.913,0.4967 1.441,-0.93093 1.719,0.85234 1.576,-2.48247 -0.338,-0.54505 0.202,-1.03067 3.354,-2.71823 1.247,-3.10309 1.528,-1.53845 1.448,-0.10679 0.322,-0.90373 1.233,-0.88055 2.652,-0.0504 1.472,-2.87943 1.735,1.06593 1.388,1.52031 0.432,1.83869 1.545,-0.47252 3.161,1.2896 -0.529,-1.01858 2.111,0.70222 0.489,0.66092 2.7,0.15415 0.33,1.25332 3.007,0.56521 0.925,-0.0685 0.6,-0.8201 0.279,-1.66137 1.057,0.28009 -0.191,-2.05127 1.007,-0.0957 0.271,-1.05485 0.823,0.28915 2.922,-2.56408 0.394,0.4826 1.766,-1.32688 1.597,0.21158 L 94.967,0 Z" />
   </g>
</svg>