<?xml version="1.0" encoding="UTF-8" standalone="no"?>
<svg
   viewBox="0 0 86.808001 141.86958"
   version="1.1"
   id="svg3"
   width="86.807999"
   height="141.86958"
   xmlns="http://www.w3.org/2000/svg"
   xmlns:svg="http://www.w3.org/2000/svg">
  <defs
     id="defs7" />
  <path
     id="INCT"
     title="Chhattisgarh"
     d="m 64.504,0 2.131,0.404 0.466,0.94806 1.238,0.32743 0.755,2.9832 0.698,0.31736 -0.313,0.49166 2.81,0.97022 0.711,1.51024 -0.307,1.65431 1.259,1.90115 3.357,0.8342 0.055,-1.35911 1.447,-0.22669 0.328,2.015 -1.113,2.03212 -0.077,1.69562 0.852,0.64882 0.772,-0.4846 0.562,1.00649 -0.765,4.37153 2.004,1.29765 0.388,2.67994 0.878,-1.36314 0.569,1.07702 1.137,-0.28311 0.15,0.62868 1.925,-0.31434 0.387,0.82715 -0.401,1.69058 -0.845,0.11284 -0.926,2.18728 -0.65,0.009 -0.603,0.6327 -0.1,1.50621 -1.481,0.78383 -1.455,-0.0484 -1.577,1.52132 -0.053,1.10624 v 0 l -0.469,-0.0272 -0.084,0.45035 1.371,0.86444 -0.782,2.18727 -2.997,0.54204 -2.266,2.28802 -1.252,-0.0605 -0.989,0.47353 -1.813,2.73434 0.862,0.86746 -1.297,0.22971 -0.068,2.07746 0.381,0.70827 0.987,0.48259 -0.606,0.88055 0.272,0.63774 -1.116,0.26397 0.112,0.85839 -0.954,-0.46547 -0.498,0.71835 0.355,0.92992 -1.348,1.50218 1.357,1.11429 -0.666,0.45942 -0.241,-0.9944 -1.267,0.82413 -0.965,2.64266 0.327,1.16165 0.911,1.00346 0.186,1.14855 -0.583,0.19143 -2.193,-0.78988 -0.333,1.41049 0.428,0.60148 -1.177,0.57327 -0.591,2.80285 -1.471,0.77477 -1.659,-0.40099 -1.77,-1.27247 -1.607,0.59443 -1.398,-0.21359 -0.495,0.43322 -0.765,-0.46042 -2.435,0.23273 0.19,1.06895 -0.747,0.68913 0.271,0.77678 -1.452,2.1369 -1.408,0.85234 -0.558,1.7873 -0.911,-0.0594 -0.295,-0.807 -1.148,-0.48058 -0.24,2.81192 0.693,3.01343 -0.925,1.5727 1.182,0.98533 0.159,1.28255 0.46,-0.46446 0.4,1.06291 -0.741,2.01902 0.742,1.17474 -0.505,0.43423 0.178,1.36919 -0.726,1.28859 0.25,1.89712 4.343,1.65028 0.7,-0.32139 1.585,0.21862 -0.146,2.16209 0.356,0.50174 -0.31,0.88659 -1.193,0.12594 -1.27,1.21101 -0.289,-1.14451 0.466,-0.93899 -3.164,-0.85839 -1.121,0.47352 -1.033,1.1546 -2.278,-3.74789 -1.092,0.44632 -2.524,-1.60293 -0.701,0.88962 -1.739,-2.05832 -1.566,1.478 -0.612,1.91828 0.258,0.93697 2.318,1.18784 0.414,1.31478 1.668,0.2821 -0.466,1.76312 0.179,3.68039 -0.496,0.81808 1.458,-0.17832 0.571,1.91122 1.334,0.14004 -0.35,1.14754 -0.534,0.0897 0.886,0.93798 -0.658,1.20396 0.566,2.36761 -0.398,0.71835 0.837,0.19948 0.259,0.59745 -0.377,0.67301 0.649,1.01253 0.302,2.30818 -1.398,0.33549 -0.243,2.3112 -0.671,0.73749 -0.998,0.0403 -0.059,0.9682 -0.939,-0.14911 -1.383,0.62465 -0.424,1.36717 -1.299,-0.47654 0.063,0.64983 1.385,0.75865 -0.16,0.60954 -0.801,-0.11284 -0.247,0.79189 -0.814,0.33952 -2.006,2.24874 -0.36,1.45684 -1.818,0.134 0.013,0.62263 -1.367,0.21661 -1.37,0.93093 -0.485,1.66237 0.373,0.58435 -0.292,1.43165 -0.728,1.40848 0.072,1.2896 -0.839,2.07242 -0.908,-0.20251 -0.186,1.72987 v 0 l -2.741,-0.1219 -1.977,-0.89164 -1.8,1.46087 -0.861,-0.0756 -1.852,-6.41876 0.622,-1.9213 -2.338,0.78182 -0.289,-1.43266 0.404,-0.21259 -0.794,-0.5924 -0.663,1.49714 -1.326,-0.1199 -0.027,-1.03973 1.148,-0.77779 -0.911,-1.06291 -0.593,-1.78226 0.215,-0.57629 -0.744,-0.2287 0.165,-0.36875 -1.007,-0.80096 -0.379,-1.02966 -3.124,-2.41598 -2.964,0.92186 -1.556,-2.91065 v 0 L 0,120.37863 l 0.72,-0.11284 1.506,-1.30873 -1.692,-2.32329 0.001,-1.29766 1.139,-1.94145 0.057,-1.47799 1.294,-1.05385 -0.07,-1.11328 1.124,-0.48662 0.808,-1.64424 1.931,-1.46288 0.885,2.0825 1.293,-0.4292 0.349,0.95511 1.27,-0.0725 2.005,-1.64625 -1.194,-1.46289 2.179,-0.86745 -0.272,-1.18683 -0.705,-0.22467 -0.372,-0.74454 -1.281,-0.12594 L 10.024,101.5415 8.681,101.4549 8.869,99.67465 6.228,97.84 6.286,96.84459 4.752,96.7247 l 0.187,1.16467 -0.537,-0.4564 -1.209,-0.0373 0.06,-0.4836 0.714,0.13299 1.378,-1.3037 -0.31,-0.672 -1.57,-0.15616 -0.029,-0.59241 0.783,-0.45035 0.77,0.55513 0.835,-0.0685 L 6.351,93.10072 6.364,91.34869 6.243,90.36335 5.356,89.71453 3.175,89.59967 3.011,89.18055 3.597,88.56799 2.947,87.41743 5.624,86.79379 6.278,85.9616 7.863,85.36214 7.198,83.97683 7.958,79.31514 6.807,79.12372 5.647,79.73527 5.012,79.01894 5.557,78.17768 7.075,77.52784 6.351,75.69521 6.274,71.91508 4.468,71.95538 3.801,70.21543 4.296,69.6069 4.002,68.2488 4.504,66.54613 8.23,64.80719 9.018,63.72514 8.675,62.99369 v 0 l 1.542,-3.18167 -0.439,-2.58625 0.194,-2.82099 0.512,-1.04175 1.428,0.23676 0.429,-1.29463 0.102,-2.956 -0.379,-0.47856 0.572,-0.0927 1.362,-3.57964 0.831,0.13904 0.27,1.2372 0.747,-0.0715 0.096,-0.80096 -0.688,-0.40199 0.941,-0.40904 0.076,-2.18526 1.366,-0.39696 0.61,-1.08003 -0.08,-3.32575 1.467,-1.11329 0.802,0.8735 1.195,-1.08507 0.596,0.40199 0.397,-0.96619 1.169,0.43121 0.373,1.45281 0.583,-0.86141 0.494,0.27001 -0.209,-0.60349 0.875,0.0151 0.821,-1.05988 2.025,0.0222 0.163,-0.57427 0.526,-0.10579 0.164,-1.43165 1.057,-0.40099 0.333,-0.60349 0.368,0.63976 0.465,-0.35363 -0.338,-1.42964 0.789,-0.91279 -0.49,-1.53945 0.178,-0.89164 1.821,-0.39595 0.076,-0.54908 1.68,-0.95914 -0.456,-1.91021 0.411,-0.83925 1.8,-0.0524 0.901,-0.83723 1.021,0.29721 0.736,-0.86644 -0.18,-1.95959 0.984,-1.29866 -0.075,-0.93294 -1.006,-0.83219 -0.564,0.13702 -0.259,-0.95511 -1.105,0.45237 -0.653,-0.22971 0.031,-0.81205 -0.835,0.23677 -1.251,-2.72025 -1.867,0.47453 -0.472,-0.78887 -1.436,-0.49468 -0.899,1.00851 -0.807,-0.1884 -0.551,0.94301 -0.443,-0.37781 -0.028,-0.99742 -0.599,-0.10176 -0.154,-0.77073 0.69,-0.26094 0.221,-1.39539 0.625,0.0151 0.925,-1.3984 L 29.975,7.97028 29.255,7.57736 29.064,6.20918 28.392,5.68427 28.645,4.46218 29.714,4.035 l 1.285,1.52837 -0.082,0.42517 1.331,0.65487 1.471,-0.28512 1.33,-1.11631 0.717,0.46144 1.047,-0.23576 0.935,0.97627 2.449,0.0141 0.869,-0.75764 -0.097,0.48259 0.563,0.57428 0.61,-0.34356 1.527,0.41811 2.758,-0.17732 1.177,0.62264 0.592,-0.2277 -0.359,-0.6861 1.227,0.0282 1.383,-0.77175 0.094,-1.17776 1.917,-0.33046 1.249,-0.93596 v 0 L 56.45,5.17548 59.545,5.12308 61.699,4.13775 62.254,2.57109 63.51,1.7933 63.782,0.65281 Z" />
</svg>
