<?xml version="1.0" encoding="UTF-8" standalone="no"?>
<svg
   viewBox="0 0 10.523 11.38173"
   version="1.1"
   id="svg3"
   width="10.523"
   height="11.38173"
   xmlns="http://www.w3.org/2000/svg"
   xmlns:svg="http://www.w3.org/2000/svg">
  <defs
     id="defs7" />
  <path
     id="INDL"
     title="Delhi"
     d="m 7.366,0.42419 0.637,0.75563 -0.427,0.95813 0.581,0.18336 1.261,1.79838 0.807,-0.0816 -0.257,1.70468 0.523,0.85436 -0.887,1.00649 0.919,1.37926 v 0 L 8.533,9.56521 8.179,10.05687 8.491,10.89511 6.924,11.38173 5.93,10.5717 5.708,9.34356 4.971,8.71287 4.475,8.83377 3.581,8.17588 3.57,8.85291 2.794,8.53958 0.929,8.98087 0.055,7.83635 0,7.01423 0.415,6.99203 0.899,5.90997 2.07,5.90897 1.727,5.44048 2.503,4.28992 2.246,1.52938 4.114,1.14451 5.041,0 6.145,0.45841 6.368,1.02664 Z" />
</svg>
