<?xml version="1.0" encoding="UTF-8" standalone="no"?>
<svg
   viewBox="0 0 6.357 6.8771399"
   version="1.1"
   id="svg3"
   width="6.3569999"
   height="6.87714"
   xmlns="http://www.w3.org/2000/svg"
   xmlns:svg="http://www.w3.org/2000/svg">
  <defs
     id="defs7" />
  <path
     id="INDN"
     title="Dadra and Nagar Haveli"
     d="M 6.106,5.33466 5.469,6.87714 4.499,6.17592 2.848,5.84546 2.684,6.54668 1.792,5.59258 1.944,5.0445 1.353,5.53011 1.017,5.1382 1.299,4.23346 0.959,3.31664 v 0 L 0,1.83361 0.447,1.50415 1.245,1.98977 1.378,1.53337 2.007,1.55957 1.993,0.96817 2.503,1.55554 2.635,0.84324 3.481,0.75764 3.826,0 3.941,1.24628 4.957,0.97324 5.322,1.65935 4.89,1.56965 3.89,2.87436 3.187,2.92576 3.304,4.56194 3.535,4.17506 4.193,4.55992 4.72,4.19924 4.629,3.43656 5.972,3.65116 6.357,4.03602 5.68,4.9337 Z" />
</svg>
