<?xml version="1.0" encoding="UTF-8" standalone="no"?>
<svg
   viewBox="0 0 13.848 19.60387"
   version="1.1"
   id="svg3"
   width="13.848"
   height="19.60387"
   xmlns="http://www.w3.org/2000/svg"
   xmlns:svg="http://www.w3.org/2000/svg">
   <defs
      id="defs7" />
   <g transform="translate(1,1) scale(0.8)">
      <path
         id="INGA"
         title="Goa"
         d="M 0,1.59185 3.2,1.30068 3.88,0 4.235,1.0478 5.552,1.21908 6.052,3.33583 6.668,4.0582 7.279,4.20127 9.333,3.20687 v 0 l 0.993,-0.0383 0.35,-0.62968 0.483,0.69517 0.384,-0.38083 0.496,0.26799 0.278,0.97123 -0.298,0.95107 0.69,0.86645 -0.647,0.79391 0.548,1.00951 0.003,1.18482 0.957,0.46445 0.278,1.61603 -1.761,0.7667 1.029,0.74857 0.318,0.85033 -0.676,0.88761 -0.235,1.02664 0.502,1.21604 -0.851,1.06594 0.176,0.52289 -1.22,0.98231 -0.831,-0.64279 0.068,0.9128 -0.754,-0.24986 -0.879,0.538 v 0 L 7.594,19.10919 7.815,18.24778 6.001,15.90938 4.85,15.51746 5.618,14.17245 4.496,10.13541 4.048,9.30221 3.367,9.51379 2.146,8.42771 4.117,8.72391 4.535,8.32998 3.535,7.52096 2.25,7.31543 2.622,6.59003 1.768,6.59603 1.169,3.99165 0,1.59179 Z" />
   </g>
</svg>