<?xml version="1.0" encoding="UTF-8" standalone="no"?>
<svg
   viewBox="0 0 71.546999 70.933646"
   version="1.1"
   id="svg3"
   width="71.546997"
   height="70.933647"
   xmlns="http://www.w3.org/2000/svg"
   xmlns:svg="http://www.w3.org/2000/svg">
   <defs
      id="defs7" />
   <g transform="translate(6,2) scale(0.8)">
      <path
         id="INHP"
         title="Himachal Pradesh"
         d="M 6.15,16.99145 7.219,15.30893 6.653,14.12814 6.986,12.47988 6.176,11.06737 4.52,9.65587 4.798,8.16578 6.036,8.15568 7.683,9.28206 10.539,7.1905 l 0.24,-0.90171 3.007,-0.69517 0.789,-1.78831 2.442,-2.073428 1.62,0.170267 1.642,-0.743533 0.72,0.0665 L 21.943,2.3384 24.097,1.914244 24.63,0.156162 25.11,0 l 0.513,0.477553 0.535,-0.243814 -0.521,2.275941 0.858,1.08709 0.686,-0.0484 0.844,2.01802 1.694,1.10421 0.772,-0.25288 0.829,0.6579 1.287,-0.17732 0.205,1.66237 0.579,-0.42819 1.139,0.88861 0.222,0.76066 0.407,-0.28008 0.981,0.55815 0.475,0.85335 0.599,-0.135 0.649,-1.50621 1.418,0.59543 0.614,-0.61961 0.733,-0.0212 1.347,-1.41049 1.453,-0.39091 0.249,-0.66596 0.989,0.35565 1.627,1.66035 -0.602,1.01455 1.804,0.90977 0.697,1.32385 0.716,0.23374 -0.248,1.81954 1.66,2.65676 1.114,-0.135 -0.039,-1.0881 0.658,0.28311 0.587,-0.94403 0.588,0.49267 0.65,-0.91379 1.265,0.24482 1.733,-1.0881 -0.169,-0.62364 1.752,-0.59946 -0.172,2.24168 0.537,1.21504 -1.929,1.13948 0.053,1.20195 -0.433,0.53095 0.668,0.79693 1.508,-1.33796 0.593,0.44632 v 0 l 0.717,0.34457 -0.145,1.03268 1.689,0.94201 -1.145,1.64726 0.043,1.6936 -0.564,0.93294 2.098,-0.0877 1.12,0.77678 -0.39,1.48908 0.483,0.90675 1.057,0.36975 1.749,2.46333 0.829,0.19445 -1.668,5.10398 0.698,0.72741 -0.279,0.55815 0.482,1.21605 0.948,0.0534 1.077,1.83868 -2.605,2.38575 0.208,0.82414 0.676,-0.14105 0.975,0.93193 -0.398,1.26743 1.063,0.49065 0.037,1.25534 1.631,1.74398 v 0 l 0.183,0.83522 1.235,1.15459 0.459,1.53945 -2.621,0.19647 -1.102,-0.97728 -0.496,-1.41956 -3.085,0.2549 -0.277,-0.66797 -0.818,-0.35565 -1.22,0.72842 -1.402,0.0725 -0.544,-0.99339 -0.516,-0.38386 -0.459,0.29621 -0.863,-1.05789 -1.213,0.0655 -0.104,0.54405 -0.51,-0.12997 -0.763,0.89164 -1.775,0.0846 -1.257,1.00044 -1.21,0.13501 -0.329,0.74454 -1.245,-0.58435 -1.408,0.59039 -0.935,1.79939 -0.884,0.4705 0.517,1.32184 -0.605,0.93798 0.434,0.39695 -1.115,-0.57326 -0.613,0.42717 0.231,0.91179 1.047,-0.0373 -0.131,1.59588 -0.939,-0.55312 -0.002,1.25534 -1.175,1.49412 1.105,1.41654 -0.161,0.60551 0.956,0.53901 0.062,1.08306 -1.099,0.51181 0.677,0.86241 0.867,-0.0191 0.154,0.74555 -0.239,0.53095 -2.515,1.45281 -2.051,0.52188 -0.378,0.62767 v 0 l 0.248,0.48662 v 0 l -0.67,-0.3103 -0.692,-1.25535 -0.481,0.88156 -1.474,0.10176 0.773,-0.77779 -0.059,-0.60449 -1.045,1.13041 -1.142,-1.04981 -0.74,0.20149 -1.234,-0.74957 -1.029,0.0997 -0.361,-1.11026 -1.137,-0.37983 -0.409,-0.62868 0.962,-0.78685 -0.119,-2.21851 -1.569,-1.32385 -0.903,-0.26094 -0.431,0.3234 -0.513,-0.85133 0.196,-0.90977 -0.394,0.37882 -0.531,-0.30326 -1.081,-2.10264 -1.04,0.64882 -0.768,-0.61961 -0.117,-0.84025 -0.844,0.58636 v 0 l -1.199,-1.39538 -2.146,-0.99843 -0.232,-1.20799 0.56,-1.38934 -0.763,-0.42818 0.023,-1.35206 0.943,-0.73951 -0.198,-0.34658 -0.95,0.26397 0.44,-0.84831 -0.651,-0.71734 -0.744,0.60853 0.046,-0.70223 -0.399,0.53095 -0.08,-0.50979 -0.538,0.23777 -0.457,-0.90373 -0.746,0.672 0.359,-0.56923 -1.445,-2.09257 -0.337,-1.23419 -0.083,0.63271 -0.907,0.32542 0.436,1.21405 -0.852,0.26497 0.002,0.5652 -2.58,0.30627 -0.137,-0.85233 -0.654,-0.49972 0.387,-1.28456 L 8.876,40.02764 7.182,35.81731 8.221,35.88281 6.61,32.53892 4.302,31.43672 2.325,29.77435 1.478,29.38648 0.414,29.66253 0,29.27464 1.739,27.21733 0.868,26.70956 0.917,25.48142 3.3,24.5112 5.55,21.88969 7.399,20.95776 5.699,18.6919 Z" />
   </g>
</svg>