<?xml version="1.0" encoding="UTF-8" standalone="no"?>
<svg
   viewBox="0 0 52.943002 95.779585"
   version="1.1"
   id="svg3"
   width="52.943001"
   height="95.779587"
   xmlns="http://www.w3.org/2000/svg"
   xmlns:svg="http://www.w3.org/2000/svg">
   <defs
      id="defs7" />
   <g transform="translate(8,0) scale(0.9)">
      <path
         id="INKL"
         title="Kerala"
         d="M 0,0.77376 2.621,0 2.963,0.6448 2.464,1.30169 3.038,1.45181 2.932,1.74499 3.823,1.62711 3.784,2.80084 4.523,2.66483 4.586,1.99082 5.937,2.45124 5.776,3.37512 6.115,3.72472 7,3.55143 7.449,4.89241 8.575,3.84058 9.646,4.40881 8.578,4.86017 l 0.09,0.98634 1.125,0.59946 0.125,0.73446 1.542,-0.87249 0.168,0.78686 -1.17,0.18034 -0.021,0.95712 1.168,0.86342 -0.047,1.72383 1.331,0.005 1.97,2.90361 1.219,0.17933 0.572,1.09817 0.82,-0.19545 0.323,0.81909 1.73,-0.19444 0.517,1.86185 1.096,0.93294 2.464,0.37278 2.375,-1.01355 0.003,2.55804 1.59,-0.27001 0.722,1.36415 1.12,-0.0746 1.318,1.56061 1.521,-0.48562 0.235,0.77678 -0.471,0.34255 0.566,0.89365 v 0 l 0.028,0.77175 -0.937,0.0191 -0.626,0.84932 -1.093,0.39393 -0.564,-0.61054 -0.946,0.60853 0.3,2.24067 0.794,-0.31837 0.897,0.63875 0.268,-0.30023 1.606,0.53699 0.795,1.1153 1.279,0.74253 0.601,-0.10579 0.042,1.26642 -1.963,1.32285 0.133,1.07399 0.73,-0.48259 2.834,0.36572 1.547,-0.97626 0.599,0.48057 -0.72,1.37423 0.996,0.49569 -0.034,1.57572 1.159,0.10881 -1.799,0.23475 -1.201,2.28802 3.525,1.33091 0.479,1.15459 1.002,0.16624 0.193,0.62061 -0.879,2.03616 0.358,0.97727 -1.416,0.0655 0.518,0.88056 -0.469,3.62598 0.67,1.17675 -0.412,1.37222 0.395,0.37478 0.539,-0.26497 -0.042,0.48965 0.904,0.9007 1.367,0.34355 1.418,-0.84125 0.279,-0.79492 2.326,-1.29463 1.239,0.12795 -0.16,0.73446 0.755,1.10926 -0.084,0.70525 0.71,0.28411 -0.433,1.87596 -1.507,0.56621 1.262,1.53845 0.229,1.42259 -0.509,0.22467 -0.745,1.63416 0.514,0.36068 -0.309,0.73346 0.524,0.55312 -0.506,0.18336 -0.033,1.23821 -0.383,0.13098 -0.796,2.32832 0.922,0.0393 1.237,0.8332 1.032,-0.59644 0.429,0.63371 0.337,-0.67703 0.202,1.46087 0.957,0.6317 -0.37,0.97324 -0.928,0.41811 -0.48,2.19131 -0.569,0.0101 -0.362,0.77577 v 1.74197 l -0.632,0.62968 0.317,0.76771 -1.17,1.15762 -0.288,1.1022 -1.045,0.5239 1.005,1.37523 0.005,0.66293 0.508,-0.0353 0.801,1.23318 -0.593,1.77118 -0.798,0.86342 -0.444,-0.0544 2.299,4.24055 -0.369,0.76469 -1.278,0.16926 0.481,1.17877 -1.563,1.25333 0.52,1.39941 -0.79,-0.22165 -0.533,0.52692 v 0 L 44.122,93.93487 36.94,84.37574 35.149,82.9733 34.573,80.51098 30.788,72.07319 28.683,60.39328 l 0.332,-0.0887 0.889,1.69562 1.359,1.45281 0.002,2.57617 0.617,0.4302 -0.692,3.28948 0.546,0.39997 v -0.41509 l 2.483,-0.11183 -1.797,-0.73749 0.296,-0.96216 -0.186,-0.83219 -0.39,0.0645 0.233,-1.05082 -0.652,-0.14206 -0.11,-3.43153 -0.779,-1.16366 -0.343,0.11183 0.245,0.6448 -0.349,-0.10176 -1.448,-3.00133 0.314,-1.05283 -1.233,-1.44274 0.791,3.53531 -0.407,0.0826 -2.611,-8.59193 -3.96,-8.7753 -1.099,-4.8249 -2.552,-7.15122 -1.111,-2.0301 -1.367,-0.6176 -1.57,-4.37959 -2.872,-3.3469 L 10.221,19.96643 8.348,16.8321 7.61,16.4422 6.999,16.84319 6.586,14.92088 2.225,6.26346 0,0.77361 Z" />
   </g>
</svg>