<?xml version="1.0" encoding="UTF-8" standalone="no"?>
<svg
   viewBox="0 0 33.544999 73.193579"
   version="1.1"
   id="svg3"
   width="33.544998"
   height="73.193581"
   xmlns="http://www.w3.org/2000/svg"
   xmlns:svg="http://www.w3.org/2000/svg">
  <defs
     id="defs7" />
  <path
     id="INLD"
     title="Lakshadweep"
     d="m 20.282,72.31911 -0.04,0.46949 -0.372,0.39998 -0.373,0.005 -0.268,-0.10477 -0.011,-0.12997 0.116,0.10579 0.36,-0.0292 0.308,-0.18236 0.28,-0.53397 z m 12.194,-38.13376 -0.076,0.91682 -0.128,0.0887 -0.134,-0.31938 0.116,0.0181 0.087,-0.13601 z M 4.769,33.50126 4.85,33.74809 4.728,33.70679 Z m 27.905,-0.41509 0.087,0.30225 -0.064,0.25288 z m -21.329,-8.97579 0.151,0.11183 -0.006,0.21964 -0.704,0.44833 z m 21.695,-5.20775 -0.029,0.0836 0.534,0.0594 -0.622,0.21964 -0.227,-0.0826 -0.011,-0.19545 0.355,-0.0846 z m -31.522,0.0363 0.343,-0.62868 0.11,-0.4564 0.134,-0.1481 0.122,0.006 -0.709,1.22713 z m 2.483,-2.69103 -0.064,0.0474 0.058,0.1602 -0.14,0.0181 0.029,-0.2015 z m 0.738,-0.15414 -0.273,0.21258 0.029,-0.11183 z m 8.478,-3.90909 0.029,0.17832 -0.268,0.36774 -0.104,-0.13097 0.018,-0.17833 z M 0.058,10.50013 0.087,10.55353 0,10.51823 Z m 14.386,-0.9551 -0.25,0.90775 -0.354,0.79492 0.349,-1.29968 z m 4.39,-5.08887 0.192,0.22568 0.052,0.33852 -0.082,0.0836 -0.122,-0.5108 -0.105,-0.0836 z M 1.803,2.24672 1.861,2.35956 1.774,2.33036 1.803,2.24676 Z M 12.851,0 12.904,0.30326 12.659,0.54707 Z" />
</svg>
