<?xml version="1.0" encoding="UTF-8" standalone="no"?>
<svg
   viewBox="0 0 62.439001 25.27511"
   version="1.1"
   id="svg3"
   width="62.438999"
   height="25.27511"
   xmlns="http://www.w3.org/2000/svg"
   xmlns:svg="http://www.w3.org/2000/svg">
  <defs
     id="defs7" />
  <path
     id="INML"
     title="Meghalaya"
     d="M 1.015,13.3888 4.096,12.04178 1.485,8.95077 2.341,8.72812 2.796,8.03194 2.573,6.86626 3.907,6.34539 4.192,5.90914 3.832,5.60286 6.217,3.67653 l 1.337,0.39191 2.968,-0.69718 0.851,-0.83925 0.66,-0.0897 0.673,0.58637 1.019,-0.61155 1.196,1.33493 -0.458,1.44173 1.463,-1.48304 0.974,0.52189 -0.47,0.58737 0.382,0.31131 1.283,-1.21101 1.284,-0.15112 -0.144,0.98231 0.785,0.1612 0.666,-1.02362 0.564,0.32542 0.968,-0.31534 0.756,0.89667 -0.068,-0.69719 0.562,-0.10277 0.517,1.40949 1.293,-0.0202 -0.595,1.53341 1.011,-0.61961 0.617,-0.0887 -0.6,0.55312 0.28,0.19848 2.788,-0.90071 -0.346,1.92735 0.253,1.08809 0.667,0.14307 1.083,-0.54707 1.213,-2.14094 1.787,-0.37075 0.534,0.31937 1.696,-0.74252 0.09,-0.39091 -0.459,0.51785 -0.692,-0.0887 1.185,-1.2231 -0.622,0.0685 1.553,-2.62151 1.178,0.24986 0.122,1.343 -0.561,0.58132 1.218,0.806 L 39.743,3.84461 39.975,1.39035 41.817,0 43,0.49065 42.882,1.55457 43.97,2.78372 45.413,1.8145 l 1.293,0.19244 1.681,-0.30528 0.945,-0.78484 1.316,0.39595 1.176,-0.38789 -2.951,3.13634 0.153,0.76973 1.294,0.11082 -0.955,0.8594 -0.559,1.33796 0.159,3.28141 1.429,-1.03268 2.189,-0.20956 1.078,-0.66092 1.007,0.51584 -0.022,0.941 0.698,0.19949 0.759,1.3853 1.17,0.25389 0.312,1.19893 0.629,0.0715 1.065,-0.80902 -0.183,1.27247 -1.618,1.6261 0.643,-0.0977 0.23,1.28053 0.945,-0.43625 0.122,0.58032 0.286,-0.15717 0.929,0.97828 0.396,-0.14609 0.492,1.06795 0.499,0.0635 0.164,1.09817 -0.577,0.83119 0.832,0.69618 -2.878,0.97929 -0.948,1.37624 -2.03,-0.51786 0.383,0.93698 -1.228,-0.19647 -0.44,1.64323 -0.782,0.12191 v 0 l -1.648,-0.4705 0.014,-0.60349 -2.393,-0.43423 -3.482,-2.15403 -5.973,0.50274 -0.607,-0.268 -0.186,0.66294 -0.767,-0.17531 -1.315,0.83522 -0.815,-0.53398 0.247,-0.69819 -3,0.97425 -1.136,-0.83925 -1.622,-0.0504 -1.435,-0.74353 -4.004,0.15817 -4.512,0.95914 -1.707,-0.6448 -0.966,0.68409 -0.973,-0.39997 -3.686,-0.0786 -1.347,0.70827 L 10.882,21.5302 6.144,20.75544 3.131,18.9903 0.264,19.16057 0.539,18.82306 0,17.08009 0.7,14.97341 v 0 l 0.521,-0.29217 z" />
</svg>
