<?xml version="1.0" encoding="UTF-8" standalone="no"?>
<svg
   viewBox="0 0 37.037 42.848941"
   version="1.1"
   id="svg3"
   width="37.036999"
   height="42.848942"
   xmlns="http://www.w3.org/2000/svg"
   xmlns:svg="http://www.w3.org/2000/svg">
  <defs
     id="defs7" />
  <path
     id="INMN"
     title="Manipur"
     d="m 10.417,9.02519 0.058,0.70223 0.713,0.0796 -0.12,0.72943 1.038,-0.1481 1.116,1.12436 1.775,-3.70154 h 0.528 L 17.429,5.3962 17.326,4.61942 16.525,4.59922 16.627,3.66124 19.166,3.00637 20.7,3.28141 l 0.947,-0.34255 0.088,-0.57628 1.493,0.84629 0.128,0.62767 0.976,0.20956 0.448,-0.73346 0.728,0.0655 0.418,1.21303 1.505,-0.26598 0.56,0.39998 2.236,-1.11933 0.204,-1.16467 0.92,-0.672 0.656,0.1078 L 33.423,0 l 0.474,0.14811 -0.41,1.08406 0.401,0.0202 -0.826,1.34904 0.035,1.69965 1.582,1.09313 1.034,0.13803 v 0 l -0.18,1.01153 -0.891,0.67099 -0.96,3.97961 3.355,1.83566 -0.072,2.57819 -0.818,1.08709 0.333,0.82816 -1.7,2.31422 -0.564,2.77868 -1.254,0.12896 -0.408,1.94144 -1.382,1.31176 -0.751,1.89511 -0.548,0.12694 0.011,1.53643 -0.808,0.49468 0.377,0.46647 -1.193,0.93194 0.034,1.06895 -1.367,2.86936 -0.364,2.83711 -1.033,2.44418 -0.527,0.0615 -0.195,1.88805 -0.813,0.22971 -0.556,-1.16567 -2.978,-1.29967 -0.98,-0.15818 -1.906,0.62565 -1.235,-1.8276 -2.854,-0.10881 -0.358,1.02564 -0.836,-0.46043 -1.015,0.97324 -0.968,-0.61356 -1.119,-2.41699 -1.289,-0.42415 -0.415,0.17228 0.071,0.84428 v 0 L 6.527,38.05727 5.838,38.69502 6.075,37.85779 5.687,37.2815 5.18,37.3117 5.031,38.09251 4.05,37.97866 3.591,37.218 2.607,38.20635 2.158,36.87646 1.618,37.15856 0,36.60343 0.961,34.41514 0.666,32.79509 1.402,31.34731 0.945,31.26871 1.004,30.26323 0.505,29.96904 v 0 L 1.314,29.78668 1.243,27.80897 2.016,26.33198 1.773,26.01461 2.734,25.81311 2.073,25.52094 2.687,23.69536 2.083,22.88734 2.739,22.15892 2.793,20.59126 3.063,20.35853 3.696,21.05269 4.626,20.556 4.622,19.51122 5.29,19.03064 5.796,18.0705 5.518,17.60705 5.987,17.3179 5.703,15.75729 l 0.405,-0.71432 0.763,0.0383 0.652,-1.10825 1.109,-3.47788 z" />
</svg>
