<?xml version="1.0" encoding="UTF-8" standalone="no"?>
<svg
   viewBox="0 0 24.813 58.76438"
   version="1.1"
   id="svg3"
   width="24.813"
   height="58.764381"
   xmlns="http://www.w3.org/2000/svg"
   xmlns:svg="http://www.w3.org/2000/svg">
  <defs
     id="defs7" />
  <path
     id="INMZ"
     title="Mizoram"
     d="M 0.78,6.19607 3.411,6.16487 3.709,8.48111 4.636,8.735 4.74,8.25543 5.697,7.90583 6.097,6.33111 7.372,6.15984 7.638,4.33425 9.029,3.82446 10.589,0 l 1.334,3.29653 0.71,-0.50073 0.886,0.11587 0.133,-0.42517 0.505,0.40099 1.357,-0.17833 v 0 l 0.499,0.29419 -0.059,1.00548 0.457,0.0786 -0.736,1.44778 0.295,1.62005 -0.961,2.18829 1.618,0.55513 0.54,-0.2821 0.449,1.32989 0.984,-0.98835 0.459,0.76066 0.981,0.11385 0.149,-0.78081 0.507,-0.0302 0.388,0.57629 -0.237,0.83723 0.689,-0.63775 1.03,-0.0423 v 0 l -0.062,1.52636 1.346,1.29967 0.139,3.86778 0.824,1.8145 -0.994,5.69941 0.355,1.0347 -1.013,0.7657 0.606,2.97312 -0.435,1.68756 0.412,0.26699 -2.008,3.02652 -0.932,-0.0141 -1.23,-1.22713 -1.288,0.29117 -0.078,1.06492 0.82,1.85984 -0.62,0.13501 -0.472,2.20541 -0.355,0.13399 0.282,1.5052 -0.439,0.7929 1.102,2.50968 -0.684,1.52434 0.46,0.268 0.176,1.28758 1.02,0.81506 0.371,3.76905 -1.286,0.32945 0.476,1.05283 -0.322,0.49469 -1.622,-0.72339 -0.635,0.28311 0.396,2.1641 -1.095,-0.003 -0.084,2.6749 -0.445,0.0232 -0.674,-1.06291 -0.505,0.28008 -0.435,1.613 -0.903,-2.69505 -0.484,0.0443 L 9.598,54.09461 9.21,54.19131 8.896,57.14226 7.332,58.07118 7.234,56.24458 6.511,54.62654 6.871,54.38777 7.339,54.80286 7.42,53.63416 5.696,44.80345 5.701,42.6736 5.276,40.84499 4.715,40.53468 4.151,38.92168 3.939,37.27342 3.632,37.42454 3.392,36.66892 2.429,36.33342 2.811,33.52452 2.228,32.43542 2.129,29.43308 3.124,29.23863 2.375,27.48458 2.532,26.57984 1.336,24.03692 0.854,20.57214 0.462,20.46232 0.751,19.02765 0.191,18.20452 v 0 L 0,16.2258 0.573,16.1845 0.322,15.445 0.682,14.93117 1.273,15.06013 1.502,14.00528 1.09,12.88696 1.458,12.22 1.146,11.18429 1.621,8.60913 Z" />
</svg>
