<?xml version="1.0" encoding="UTF-8" standalone="no"?>
<svg
   viewBox="0 0 40.049001 43.01205"
   version="1.1"
   id="svg3"
   width="40.049"
   height="43.012051"
   xmlns="http://www.w3.org/2000/svg"
   xmlns:svg="http://www.w3.org/2000/svg">
  <defs
     id="defs7" />
  <path
     id="INNL"
     title="Nagaland"
     d="m 39.015,0 0.803,3.58065 -1.033,0.61155 0.505,0.33247 0.136,1.23016 0.623,0.25892 -0.601,1.2221 0.449,1.15156 v 0 l -1.736,1.56767 -0.004,0.90775 -1.828,2.79581 0.816,0.7395 -0.029,0.67301 0.648,0.31434 -0.304,3.48997 0.446,0.57226 -0.513,1.05888 0.053,1.38329 1.364,0.68711 -1.659,2.61849 -1.46,0.77174 -0.319,0.60752 -0.126,0.86242 0.777,2.54896 -2.407,2.17922 -0.375,1.34702 -0.643,0.41912 0.335,0.6045 -1.163,0.15012 -0.772,1.51729 -2.724,0.82816 v 0 l -1.034,-0.13803 -1.582,-1.09313 -0.035,-1.69965 0.826,-1.34904 -0.401,-0.0202 0.41,-1.08406 -0.474,-0.14811 -1.416,1.87697 -0.656,-0.1078 -0.92,0.672 -0.204,1.16467 -2.236,1.11933 -0.56,-0.39998 -1.505,0.26598 -0.418,-1.21303 -0.728,-0.0655 -0.448,0.73346 -0.976,-0.20956 -0.128,-0.62767 -1.493,-0.84629 -0.088,0.57628 -0.947,0.34255 -1.534,-0.27504 -2.539,0.65487 -0.102,0.93798 0.801,0.0202 0.103,0.77678 -1.904,2.41497 H 7.558 l -1.775,3.70154 -1.116,-1.12436 -1.038,0.1481 0.12,-0.72943 -0.713,-0.0796 -0.058,-0.70223 v 0 L 2.515,39.7145 3.066,38.88634 2.724,37.61387 1.343,36.92978 0,35.00849 2.005,33.03984 3.52,32.4565 5.056,30.02843 7.824,27.9822 7.451,26.56465 l 1.343,-0.62867 0.444,-0.69115 0.53,1.31378 -0.388,1.478 0.334,0.74454 0.974,-1.12437 0.846,0.3889 0.694,-0.97325 1.33,-0.74655 -0.514,-2.04522 0.759,-1.52434 0.287,-2.35049 2.16,-3.58166 1.414,-0.41811 0.23,-2.72326 1.888,-2.30415 0.273,-0.12392 0.086,1.95455 0.474,0.4171 0.724,-1.07097 1.012,-0.55513 0.177,-1.92432 1.142,-0.49468 0.115,-0.80701 1.614,-0.96518 0.62,0.46748 0.617,-1.13343 0.506,0.48561 1.22,-0.32844 2.42,-1.72585 1.759,-2.97312 0.877,-0.46244 1.205,0.79693 0.747,-0.16825 1.856,-0.97728 z" />
</svg>
