<?xml version="1.0" encoding="UTF-8" standalone="no"?>
<svg
   viewBox="0 0 63.974001 74.248541"
   version="1.1"
   id="svg3"
   width="63.973999"
   height="74.248543"
   xmlns="http://www.w3.org/2000/svg"
   xmlns:svg="http://www.w3.org/2000/svg">
   <defs
      id="defs7" />
   <g transform="translate(0,0) scale(0.8)">
      <path
         id="INPB"
         title="Punjab"
         d="m 41.894,0 -0.451,1.70066 1.7,2.26586 -1.849,0.93193 -2.25,2.62151 -2.383,0.97022 -0.049,1.22814 0.871,0.50777 -1.739,2.05731 0.414,0.38789 1.064,-0.27605 0.847,0.38788 1.977,1.66237 2.308,1.1022 1.611,3.34389 -1.039,-0.0655 1.694,4.21033 3.156,5.7256 -0.387,1.28456 0.654,0.49972 0.137,0.85234 2.58,-0.30628 -0.002,-0.5652 0.852,-0.26497 -0.436,-1.21404 0.907,-0.32542 0.083,-0.63271 0.337,1.23419 1.445,2.09257 -0.359,0.56923 0.746,-0.672 0.457,0.90373 0.538,-0.23777 0.08,0.50979 0.399,-0.53095 -0.046,0.70223 0.744,-0.60853 0.651,0.71734 -0.44,0.84831 0.95,-0.26397 0.198,0.34658 -0.943,0.73951 -0.023,1.35206 0.763,0.42818 -0.56,1.38934 0.232,1.20799 2.146,0.99843 1.199,1.39538 v 0 l -0.017,0.73044 1.229,1.075 0.399,0.97828 -0.39,0.70122 v 0 l -0.734,-0.0665 0.063,-0.46949 -0.562,0.21359 -0.208,-0.53801 -1.438,0.95209 0.746,1.56565 1.425,0.64883 0.533,-0.403 v 0 l 0.314,0.73345 0.574,-0.57326 -0.076,0.94302 1.148,0.99742 -0.595,1.44576 0.739,0.54505 -0.658,0.81507 -0.002,1.05888 0.806,1.2765 -0.985,0.70424 v -0.64581 l -1.001,-1.15963 -0.502,0.53599 -1.059,-0.65689 -1.208,1.1012 0.234,0.69215 0.569,0.13399 -0.489,0.64984 -0.849,0.16926 -1.356,1.34501 -1.302,0.13802 -0.316,0.91783 1.077,-0.7133 0.587,0.62061 -0.162,0.38386 0.725,0.22366 -0.256,2.43412 -0.537,0.61658 -0.508,0.12393 -0.458,-0.57327 -1.126,0.537 -0.215,-0.49771 -0.811,-0.0866 -0.877,-2.46535 -0.611,0.46245 0.432,0.61961 -0.244,0.73245 -1.342,-0.52692 0.483,0.52389 -0.545,0.47151 -1.502,-0.26195 -0.99,-0.9682 0.169,0.57931 -0.447,0.002 1.348,0.73749 -1.185,1.61603 0.357,0.26195 -0.513,0.25993 0.271,1.75103 -0.787,0.37479 0.384,0.96921 1.201,0.47352 -2.629,1.75708 -0.811,-0.22669 -0.879,1.42863 -0.378,-0.22668 -1.104,0.59643 -1.792,-0.37982 -1.052,-1.57774 -0.69,0.12593 -0.512,-0.44128 -1.375,0.40502 -0.177,1.29161 -1.509,-0.43524 -0.254,0.64782 -0.931,0.0917 -0.259,-0.56118 -0.935,0.14005 -1.412,-1.1556 -1.371,2.33336 -0.909,0.42214 0.316,0.83522 -0.685,-0.27606 -0.778,1.46289 0.501,0.52188 -0.176,0.49166 -1.52,0.52894 -0.047,-1.45684 -1.003,-0.56723 -0.324,-0.78887 0.784,-0.60449 -0.033,-0.90474 0.78,-0.64882 -1.018,-2.09459 -0.564,0.4564 -0.028,0.93798 -1.337,-0.62062 0.354,-0.47957 -0.541,-0.55312 0.481,-0.57629 -0.407,-1.01454 -0.404,0.87249 -1.582,0.54707 -1.553,-2.2437 -0.638,0.24382 -0.079,-0.70928 -0.667,0.22366 -1.014,-0.81103 -1.616,0.74454 -0.695,-0.17934 -1.066,1.13344 0.149,0.43121 -2.678,-0.93698 v 0 L 0.417,64.00229 0.494,62.14145 1.998,60.33903 1.99,58.5467 v 0 L 1.813,56.92765 0,54.32931 0.673,53.15659 1.185,53.05584 1.341,52.03323 1.914,52.1632 2.354,51.11741 3.407,50.24794 4.32,50.41519 4.117,49.79356 4.635,49.29485 4.601,48.38206 l 0.374,0.17329 0.198,-0.64581 0.682,-0.0111 1.7,-2.1228 1.04,-0.25892 -0.411,-0.92287 0.737,-0.35968 -0.244,-0.41105 0.636,-1.17273 0.981,0.0433 0.053,-0.96921 1.059,-0.50375 1.14,-1.46691 1.414,-0.67402 0.424,-1.81249 1.343,0.50174 1.04,-0.35565 0.465,-0.83018 -0.358,-0.86241 -0.966,0.2287 -0.203,-0.38587 -0.609,0.0897 -0.145,0.93496 -0.702,0.23575 -0.178,-0.88458 -0.813,-0.41206 0.137,-3.28344 0.853,-0.64177 1.888,-3.97055 -0.327,-0.65789 -1.269,-0.36975 0.796,-0.79693 -0.062,-0.83119 -1.751,-3.82244 0.017,-0.5501 0.706,-0.19847 0.096,-1.8669 0.92,-1.41251 0.467,0.11486 0.78,-0.91179 0.908,-0.16523 0.124,-0.81708 0.56,0.50879 0.247,-0.36774 1.286,-0.0715 0.193,-1.04679 0.978,-0.65487 0.153,-0.6589 1.121,-0.37479 1.653,0.9138 2.33,-1.33897 1.009,0.36774 0.647,-1.20597 0.917,0.73144 2.595,-3.65822 0.081,-0.8463 -0.935,-1.70267 v 0 l 1.94,0.32441 1.198,-0.39191 -0.094,0.55916 0.471,0.18236 0.231,0.84831 0.585,-1.80947 3.817,-1.72181 0.72,-1.44676 1.222,-0.26598 z" />
   </g>
</svg>