<?xml version="1.0" encoding="UTF-8" standalone="no"?>
<svg
   viewBox="0 0 55.581003 128.19697"
   version="1.1"
   id="svg3"
   width="55.581001"
   height="128.19698"
   xmlns="http://www.w3.org/2000/svg"
   xmlns:svg="http://www.w3.org/2000/svg">
  <defs
     id="defs7" />
  <path
     id="INPY"
     title="Puducherry"
     d="m 4.329,128.19693 -0.793,-0.007 -0.091,-1.13847 -1.719,-0.64077 -0.486,-1.16063 0.877,0.18134 -0.285,-0.93193 1.078,0.42113 0.377,-0.40299 1.112,0.21761 v 0 l -0.07,3.46176 z m -1.064,-21.25415 -0.39,-0.68308 -0.62,0.33851 -0.049,-0.77275 -0.963,0.47655 -0.937,-0.58636 0.499,-0.83623 0.681,0.63674 0.199,-0.35464 L 1.29,104.3656 0.707,104.19735 1.144,103.4377 0,103.13242 l 0.725,-0.70625 0.561,0.89768 0.604,-0.3627 0.375,0.31736 -0.772,0.25792 0.444,1.2896 1.277,-1.20698 0.832,0.49266 v 0 z M 54.703,1.34803 52.966,0.58133 53.867,0 l 0.058,0.73144 1.262,-0.0977 0.272,-0.4433 0.122,0.62767 v 0 0 0 l -0.002,0.007 v 0 l -1.057,0.0977 0.181,0.42516 z" />
</svg>
