<?xml version="1.0" encoding="UTF-8" standalone="no"?>
<svg
   viewBox="0 0 18.953 24.810619"
   version="1.1"
   id="svg3"
   width="18.952999"
   height="24.810619"
   xmlns="http://www.w3.org/2000/svg"
   xmlns:svg="http://www.w3.org/2000/svg">
   <defs
      id="defs7" />
   <g transform="translate(2,0) scale(0.8)">
      <path
         id="INSK"
         title="Sikkim"
         d="m 13.152,0.72547 0.449,0.59543 1.766,0.0181 1.713,1.46792 0.07,1.89007 0.523,0.2025 0.512,1.47498 -0.658,1.06291 -0.16,3.49904 -1.665,2.46131 0.885,3.77811 2.366,1.86287 -0.486,1.21302 -2.052,0.64581 -0.271,1.45684 -0.764,0.8866 v 0 l -0.569,0.2287 -0.84,-0.98332 -0.585,0.42013 -0.783,-0.59946 -1.257,-0.0212 -0.8,0.24885 0.192,0.66092 L 8.687,24.81062 6.423,24.26254 6.018,23.70338 4.512,23.91193 3.74,23.52404 2.505,23.97943 1.441,23.39911 1.213,21.9997 0,21.57554 v 0 L 1.092,18.82004 0.575,17.98986 0.679,17.1748 1.374,16.67407 0.615,15.03387 3.83,8.05393 3.323,7.34969 3.914,6.94467 3.808,6.55981 2.365,5.89486 2.238,4.2476 2.555,3.94838 3.593,4.41888 4.453,3.84259 4.751,4.30402 6.871,3.33078 7.804,3.6018 9.757,1.99786 10.926,2.15705 11.251,1.06492 12.549,0.61658 12.452,0 Z" />
   </g>
</svg>