<?xml version="1.0" encoding="UTF-8" standalone="no"?>
<svg
   viewBox="0 0 95.407 90.069159"
   version="1.1"
   id="svg3"
   width="95.406998"
   height="90.06916"
   xmlns="http://www.w3.org/2000/svg"
   xmlns:svg="http://www.w3.org/2000/svg">
  <defs
     id="defs7" />
  <path
     id="INTG"
     title="Telangana"
     d="M 6.59,36.03419 6.945,35.44682 5.953,34.75567 6.7,33.24141 6.087,33.03084 7.328,32.63086 6.511,32.23492 7.146,31.78457 7.66,31.99614 7.581,30.37407 8.66,30.26123 l 0.183,0.56218 1.652,-0.60953 -0.076,-2.68095 0.518,-0.68913 0.603,0.50879 1.068,-2.73032 2.201,-0.32844 -1.277,-1.91022 -0.86,-0.0615 0.277,-0.90775 -0.859,0.0625 0.093,-0.72942 -1.042,0.0211 -0.208,-1.04578 0.089,-0.74252 0.744,0.23777 0.114,-1.12336 0.952,0.26295 -0.357,-1.01052 0.572,-1.00145 -0.248,-0.35967 0.436,-1.29363 0.803,-0.26598 -0.917,-0.37479 -0.022,-0.39998 1.843,-0.87047 2.027,1.56464 0.113,0.64581 0.651,-0.28916 1.838,0.41006 0.567,-2.11978 -0.313,-1.77722 2.652,-0.99339 L 21.854,7.95822 22.525,7.65597 22.521,6.93561 21.657,5.62284 21.994,5.03144 23.239,4.49948 23.709,2.9963 23.107,1.70066 22.168,1.46994 22.7,0 l 0.35,0.72036 1.003,0.0876 0.282,0.95511 1.644,0.44632 0.372,0.51786 0.677,-0.63574 1.62,0.0937 2.361,1.12941 1.432,-0.26699 1.272,0.45438 0.276,2.27191 1.196,-0.25389 1.109,0.41206 0.243,1.42763 -0.544,0.74051 0.802,-0.2277 0.534,0.49166 1.769,0.26598 1.568,1.49714 0.945,-0.15818 -0.337,-0.53095 0.624,-0.78181 0.152,-1.9072 1.276,0.49871 0.197,0.54808 1.146,-0.12694 2.123,1.6402 1.512,-1.13545 0.206,0.63271 0.954,0.36169 0.872,-1.58378 2.106,-0.62566 0.944,0.21258 0.896,1.25938 2.344,1.61199 0.687,1.4115 -0.235,2.29911 -0.871,1.57875 0.482,1.23922 -1.782,1.47498 0.032,1.54147 1.183,-0.2821 0.385,0.56923 0.094,3.60785 -0.942,0.62263 0.796,1.02765 1.682,0.39091 2.061,2.00492 0.989,-0.43826 0.646,0.45136 0.271,-0.48461 1.374,-0.45337 v 0 l 1.556,2.91065 2.964,-0.92186 3.124,2.41598 0.379,1.02966 1.007,0.80096 -0.165,0.36875 0.744,0.2287 -0.215,0.57629 0.593,1.78226 0.911,1.06291 -1.148,0.77779 0.027,1.03973 1.326,0.1199 0.663,-1.49714 0.794,0.5924 -0.404,0.21259 0.289,1.43266 2.338,-0.78182 -0.622,1.9213 1.852,6.41876 0.861,0.0756 1.8,-1.46087 1.977,0.89164 2.741,0.1219 v 0 l 1.559,-0.39897 0.455,0.48159 1.833,-0.5511 0.888,0.27504 1.086,-1.35508 0.529,-0.17329 0.311,0.52088 1.154,-0.71029 v 0 l 0.722,0.8997 -0.218,0.45337 -4.307,2.33034 -0.114,0.84025 -1.428,2.15605 0.434,0.44329 -0.466,0.66697 -0.167,1.9898 -1.629,1.91626 -0.917,0.0967 -0.987,-0.73346 -1.204,1.55054 -1.792,-0.0494 -0.393,1.96864 -2.433,0.41106 -1.158,0.74958 -1.798,-0.47352 0.167,1.21302 -0.9,-0.008 -0.241,2.09358 -0.552,0.55211 -2.234,-0.85335 -1.803,0.20754 0.357,-0.71532 -2.02,-1.1022 -1.341,0.66092 -0.291,1.2634 -0.753,0.72943 -0.538,-0.17128 -0.533,-1.1566 -0.587,0.46042 0.454,0.93194 -0.638,0.95107 2.712,1.16669 0.074,-0.67402 1.944,0.47453 0.054,1.15258 -0.456,0.10679 -0.218,0.96921 1.037,0.81104 -0.864,0.54506 -2.228,-0.59443 -0.08,-0.55412 -1.107,-0.75361 -0.56,0.8463 -0.3,-0.96015 -0.824,-0.35161 -0.375,-1.85984 -0.82,-1.19993 -1.275,-0.0544 -0.401,-0.69819 -1.01,1.30672 -1.842,0.43927 -0.76,1.27146 -0.374,0.96418 0.867,0.23676 0.766,0.85033 -0.456,1.49915 -1.879,2.25579 -1.174,0.0927 -0.842,-1.32184 -1.08,0.16926 -0.741,-0.85436 -2.655,1.47699 -3.158,0.69014 -1.478,1.04981 -3.359,0.45942 -0.854,1.16467 -0.139,5.86766 -0.881,0.49166 -3.049,-0.62465 -2.207,0.94705 -0.42,0.44531 0.106,1.67446 -0.792,-0.10881 -0.204,-0.93697 -0.525,-0.0796 -0.028,1.51326 -1.287,1.39135 -1.284,-0.0655 -2.023,-1.57673 -1.213,0.9279 -3.212,-0.53598 -1.872,1.13041 -1.247,-0.0474 -0.391,2.22859 -1.213,0.62364 -0.322,1.12134 -0.813,10e-4 -0.34,0.47453 -0.961,-0.37882 -0.574,-1.25332 -0.72,0.93395 -2.39,-0.79996 -1.852,0.66697 -1.74,-0.46345 -1.196,0.21963 -1.101,-0.76771 -2.029,-0.19848 v 0 L 5.756,86.25377 5.351,85.63517 5.741,84.04433 5.266,83.77734 5.202,82.84339 5.769,81.42987 5.31,81.40767 5.284,80.85254 5.57,80.45861 6.251,80.57145 6.905,79.80676 7.435,80.04352 7.462,78.93628 5.429,78.10006 3.697,78.38619 2.257,78.01442 1.037,77.50563 0,76.08406 1.19,75.96215 1.287,75.57225 2.746,75.73345 3.013,75.15212 3.771,74.99596 3.272,73.96025 4.794,73.54516 4.904,72.17295 4.141,72.37647 3.798,71.82537 4.812,71.48685 4.85,70.74936 3.941,70.69396 4.237,69.19178 4.94,69.27938 4.569,66.43421 5.532,64.28018 4.762,62.1594 2.614,60.89701 3.426,59.86332 3.04,59.62152 4.592,58.38935 4.163,58.11732 4.531,56.31189 5.526,56.67257 6.131,56.27663 6.288,55.5744 5.757,55.06561 7.063,55.01521 7.077,54.47318 7.86,54.69281 7.867,54.1276 8.484,53.99462 8.742,53.39515 8.644,53.87976 9.396,54.06313 9.43,53.34276 7.465,52.74834 7.425,52.08642 6.558,52.3796 6.118,51.85671 5.578,52.568 5.335,52.00985 4.287,51.67636 l 0.218,-2.41698 2.338,-1.22713 0.082,-0.3758 -1.287,-0.40501 0.134,-0.41509 0.316,-0.55916 0.497,0.19344 0.482,-1.20698 0.502,0.0524 -0.241,-0.8322 0.656,0.11788 0.151,-1.209 L 8.559,43.6436 8.755,43.13784 8.604,42.61192 7.476,42.23814 6.502,41.27598 7.65,40.26949 7.591,39.11289 6.891,38.0399 7.701,36.32917 Z" />
</svg>
