<?xml version="1.0" encoding="UTF-8" standalone="no"?>
<svg
   viewBox="0 0 86.226999 116.54714"
   version="1.1"
   id="svg3"
   width="86.226997"
   height="116.54714"
   xmlns="http://www.w3.org/2000/svg"
   xmlns:svg="http://www.w3.org/2000/svg">
   <defs
      id="defs7" />
   <g transform="translate(8,0) scale(0.9)">
      <path
         id="INTN"
         title="Tamil Nadu"
         d="m 64.611,90.00783 0.477,0.35867 -0.431,0.6186 0.239,0.43726 2.384,2.20037 -2.954,-1.881 -1.762,-0.15314 -0.215,-0.49568 0.337,-0.31334 0.988,-0.0232 0.937,-0.74857 z m -22.853,-73.11506 0.137,0.80398 -0.782,0.72742 1.561,-0.22669 0.545,0.83622 1.63,0.88257 1.911,-0.11989 -0.041,-0.96317 0.647,-0.0222 0.102,-0.86241 0.358,0.0363 0.114,-0.0373 0.176,0.51281 0.487,-0.12694 -0.044,-1.25333 0.762,-0.57729 0.916,-3.18974 0.439,0.004 -0.691,-1.28657 0.784,-0.83925 0.893,0.29117 0.182,-1.11328 0.912,0.23071 2.722,-0.87753 0.123,1.42964 0.895,0.0232 -0.653,-0.35463 0.438,-0.70223 1.365,-0.1884 1.873,1.34098 1.751,0.14709 L 62.028,9.75463 62.643,9.33955 62.644,8.65848 63.671,8.53657 64.52,9.48966 65.496,8.78341 65.354,8.06708 66.945,7.54217 66.9,7.0888 67.4,6.91148 67.203,6.63039 66.674,7.01122 66.971,5.52113 65.915,5.05365 l 1.136,-0.44229 2.238,0.27001 0.271,0.94604 0.66,0.46849 1.848,-0.78686 0.1,1.12941 0.476,-0.0957 -0.153,0.57025 0.714,-0.31132 0.451,0.57931 0.848,-0.61457 -1.332,-1.04981 0.687,-0.6579 0.538,0.44632 0.429,-0.47957 1.065,0.0191 L 77.447,4.34435 78.034,3.52324 77.593,2.87239 78.237,2.58022 78.208,1.86087 78.91,1.68455 79.13,1.07502 79.761,1.14552 79.692,0.77174 78.801,0.59341 78.884,0.17228 80.461,0 l 1.73,1.26642 1.638,0.0433 0.956,1.89007 0.756,0.42516 -10e-4,-1.1425 v 0 l 0.687,3.21392 -0.959,2.88144 -0.924,7.65899 -2.047,6.72907 -5.699,8.68463 -0.988,2.66382 v 0 l -0.832,-0.49267 -1.277,1.20698 -0.444,-1.28959 0.772,-0.25792 -0.375,-0.31736 -0.604,0.36269 -0.561,-0.89768 -0.725,0.70626 v 0 0 0 l 1.144,0.30527 -0.437,0.75965 0.583,0.16826 0.395,0.79592 -0.199,0.35464 -0.681,-0.63674 -0.499,0.83622 0.937,0.58637 0.963,-0.47655 0.049,0.77275 0.62,-0.33852 0.39,0.68308 v 0 l -0.907,5.23496 1.698,4.46623 0.343,8.09121 v 0 l -1.112,-0.21762 -0.377,0.403 -1.078,-0.42113 0.285,0.93193 -0.877,-0.18135 0.486,1.16064 1.719,0.64076 0.091,1.13848 0.793,0.007 v 0 l 0.587,11.02403 -0.913,0.44934 -1.942,0.006 -7.478,-0.88761 -1.901,1.1949 -1.378,2.47844 -0.012,1.11227 0.814,1.15258 -2.35,2.24571 -0.697,1.65431 -2.675,3.10712 -1.244,2.14295 -0.762,2.70815 0.861,1.57069 2.599,2.24672 2.657,0.39997 -2.023,0.46043 -2.902,-0.26598 -1.715,0.3365 -3.047,1.01455 -0.192,0.39494 -1.268,-0.0473 -0.326,0.39595 0.314,0.34254 -1.657,0.56017 -3.506,0.41207 -4.221,3.23608 -0.844,1.63718 -0.238,2.34445 0.622,-0.10579 0.901,0.58939 -1.273,0.0997 -1.349,1.96059 -0.175,1.49009 0.884,-0.15919 -0.174,1.94245 -1.367,1.63618 -0.325,0.83521 0.366,0.20553 -5.506,2.5933 -1.198,1.50016 -3.582,0.88156 -0.518,1.25132 -4.919,-0.94 -4.595,-3.7489 v 0 l 0.533,-0.52692 0.79,0.22165 -0.52,-1.39941 1.563,-1.25333 -0.481,-1.17877 1.278,-0.16926 0.369,-0.76469 -2.299,-4.24055 0.444,0.0544 0.798,-0.86342 0.593,-1.77118 -0.801,-1.23318 -0.508,0.0353 -0.005,-0.66293 -1.005,-1.37523 1.045,-0.5239 0.288,-1.1022 1.17,-1.15762 -0.317,-0.76771 0.632,-0.62968 v -1.74197 l 0.362,-0.77577 0.569,-0.0101 0.48,-2.19131 0.928,-0.41811 0.37,-0.97324 -0.957,-0.6317 -0.202,-1.46087 -0.337,0.67703 -0.429,-0.63371 -1.032,0.59644 -1.237,-0.8332 -0.922,-0.0393 0.796,-2.32832 0.383,-0.13098 0.033,-1.23821 0.506,-0.18336 -0.524,-0.55312 0.309,-0.73346 -0.514,-0.36068 0.745,-1.63416 0.509,-0.22467 -0.229,-1.42259 -1.262,-1.53845 1.507,-0.56621 0.433,-1.87596 -0.71,-0.28411 0.084,-0.70525 -0.755,-1.10926 0.16,-0.73446 -1.239,-0.12795 -2.326,1.29463 -0.279,0.79492 -1.418,0.84125 -1.367,-0.34355 -0.904,-0.9007 0.042,-0.48965 -0.539,0.26497 -0.395,-0.37478 0.412,-1.37222 -0.67,-1.17675 0.469,-3.62598 -0.518,-0.88056 1.416,-0.0655 -0.358,-0.97727 0.879,-2.03616 L 13.869,58.69464 12.867,58.5284 12.388,57.37381 8.863,56.0429 10.064,53.75488 11.863,53.52013 10.704,53.41132 10.738,51.8356 9.742,51.33991 10.462,49.96568 9.863,49.48511 8.316,50.46137 5.482,50.09565 4.752,50.57824 4.619,49.50425 6.582,48.1814 6.54,46.91498 5.939,47.02077 4.66,46.27824 3.865,45.16294 2.259,44.62595 1.991,44.92618 1.094,44.28743 0.3,44.6058 0,42.36513 0.946,41.7566 1.51,42.36714 2.603,41.97321 3.229,41.12389 4.166,41.10479 4.138,40.33304 v 0 l 0.584,0.0897 1.106,-0.91783 0.758,0.58939 0.412,1.29161 3.897,-0.009 1.471,0.28512 0.435,0.48562 0.285,-0.58435 -0.469,-0.90473 1.49,-2.97817 1.254,0.38789 0.276,-0.76872 0.663,-0.0413 0.57,0.40804 -0.195,0.41106 0.716,-0.26598 0.316,1.11429 0.789,0.26195 -0.136,-1.07601 2.601,-0.44128 0.308,-0.39998 0.902,0.0877 0.864,0.84327 0.699,-0.42416 1.251,0.60148 0.775,-1.89309 -0.073,-1.05888 0.505,0.26901 0.157,-1.20799 3.686,-0.12292 0.607,-1.53744 1.654,-2.04925 -0.881,-1.32284 -5.457,-0.74958 0.095,-1.27851 1.518,-0.46849 1.279,-1.50318 0.34,-1.17273 0.107,-1.47699 -1.043,0.19042 0.649,-0.67402 -0.583,-0.15515 -0.177,-1.09314 0.582,-1.35407 -0.157,-0.78484 1.339,-0.35666 0.504,0.54002 0.533,-0.52994 0.578,0.20956 1.425,-2.63965 -0.306,-1.00951 2.781,-0.95813 0.35,0.48058 -0.528,0.73245 0.326,0.17833 0.435,-0.7657 0.75,1.15459 0.42,0.004 0.281,-1.08407 0.666,0.0756 1.548,1.55456 z" />
   </g>
</svg>