<?xml version="1.0" encoding="UTF-8" standalone="no"?>
<svg
   viewBox="0 0 24.672001 35.930381"
   version="1.1"
   id="svg3"
   width="24.672001"
   height="35.930382"
   xmlns="http://www.w3.org/2000/svg"
   xmlns:svg="http://www.w3.org/2000/svg">
   <defs
      id="defs7" />
   <g transform="translate(5,2) scale(0.8)">
      <path
         id="INTR"
         title="Tripura"
         d="m 21.498,0.03116 0.959,0.43221 v 0 l 10e-4,1.0075 0.868,1.86689 -1.249,2.99328 1.754,-0.0564 v 0 l 0.841,2.41295 -0.475,2.57516 0.312,1.03571 -0.368,0.66696 0.412,1.11832 -0.229,1.05485 -0.591,-0.12896 -0.36,0.51383 0.251,0.7395 -0.573,0.0413 0.191,1.97872 v 0 l -0.441,0.10277 -0.49,1.53038 -0.133,-0.86644 -0.652,-0.35162 -0.13,-0.73245 -0.36,0.0645 -1.936,2.17619 -0.995,-0.30527 -0.827,-1.64323 -0.449,0.0464 -0.415,1.05082 0.687,4.56295 -0.697,0.30427 -0.001,0.72036 -0.802,-0.0877 -1.176,0.94201 -1.517,2.78976 1.268,4.16701 -0.425,0.58334 -0.768,0.0736 -1.139,1.7742 -0.538,-0.31635 -0.967,0.2428 -0.99,0.8191 L 8.573,35.55861 7.102,31.43896 7.383,30.77804 6.616,30.62288 6.861,30.08992 6.311,29.12071 5.557,29.11371 4.828,30.83754 5.521,33.57894 4.593,33.46912 3.603,31.33424 3.644,29.1651 3.102,28.30167 3.419,28.0367 2.911,27.60751 3.504,26.66247 2.898,26.84181 2,23.75182 1.018,23.11004 1.251,22.40983 0.863,22.41783 0.159,21.1776 0.063,19.61195 0.851,20.15298 1.084,19.22406 0,19.14046 0.045,18.03524 0.781,17.71788 1.389,18.02013 2.081,15.73915 1.555,14.73972 1.91,14.04958 1.612,13.69796 l 0.859,0.0544 -0.093,-0.85738 0.248,-0.44632 0.334,0.23777 0.142,-0.59342 1.502,0.49871 0.384,-1.71073 -0.387,-1.33594 3.5,0.76671 1.86,-0.60853 0.547,-1.95253 -0.254,-0.61558 0.408,-0.36975 0.364,1.40445 0.98,0.61961 0.637,-0.0232 -0.392,-2.38576 1.509,0.87955 0.668,-0.44632 -0.12,0.70323 0.974,1.39438 0.453,-0.1199 0.67,-2.88043 L 15.956,4.34231 16.724,3.86979 17.525,4.67478 17.079,3.12424 20.117,3.23507 20.534,2.30011 21.238,2.151 20.812,0.5521 20.884,0 Z" />
   </g>
</svg>