<?xml version="1.0" encoding="UTF-8" standalone="no"?>
<svg
   viewBox="0 0 72.358003 66.823157"
   version="1.1"
   id="svg3"
   width="72.358002"
   height="66.823158"
   xmlns="http://www.w3.org/2000/svg"
   xmlns:svg="http://www.w3.org/2000/svg">
  <defs
     id="defs7" />
  <path
     id="INUT"
     title="Uttarakhand"
     d="m 34.158,2.87133 1.116,1.40042 -0.297,1.04579 0.814,0.57125 0.253,1.48807 0.842,0.98835 1.188,0.28009 0.654,1.98074 1.845,-0.0393 0.626,1.59285 1.174,0.75864 1.397,-1.04376 1.064,0.0574 0.782,-0.57326 1.316,0.71129 1.045,-0.0282 1.259,2.12179 2.702,1.17776 1.235,1.57271 1.133,-0.80802 0.695,1.1949 0.677,-0.0343 0.304,0.672 -0.368,0.98735 -0.822,0.66797 0.596,0.6045 0.142,1.61098 1.881,0.2811 1.313,0.99037 0.675,-0.10579 2.636,1.87294 1.208,-0.80197 3.209,2.16813 1.545,1.90115 4.361,1.62811 -0.015,0.39192 -0.595,-0.2418 -1.645,0.57327 -0.99,1.3178 0.306,0.9803 -2.434,1.91726 -0.284,1.03873 -1.496,1.17575 -1.519,-0.0151 -1.064,2.64972 -1.2,1.25231 -1.245,-0.19948 -1.423,1.33191 0.34,1.82659 0.752,0.86746 -0.26,1.06593 -0.607,0.81204 -0.757,0.20352 0.146,0.81808 -1.317,1.00549 0.331,0.58233 -1.243,0.20553 -0.031,0.79391 0.702,0.46647 0.088,1.07298 0.786,0.82413 -0.411,2.6064 -1.027,-0.37378 0.492,1.88805 -0.804,0.56722 -1.026,-0.45438 -0.837,0.82514 -0.183,2.29709 -0.372,0.61256 -0.369,-0.11284 -0.874,1.68151 0.256,2.07444 v 0 l -0.978,0.71532 0.31,0.40098 -0.562,1.09515 -0.958,0.51987 -0.952,-0.40804 -0.7,-1.27045 0.258,-0.39192 -1.271,-0.15616 0.734,-0.23172 -0.451,-0.62163 -0.619,-0.0121 -0.18,0.7788 -0.681,0.16422 0.529,-1.37523 -0.715,-0.69417 -1.304,0.26699 -0.963,0.77476 -1.102,-0.48863 -1.311,0.54707 -0.303,-1.11832 -0.611,0.70121 -2.01,0.17833 -0.205,-1.83062 -0.511,-0.11486 -0.363,-0.80196 -0.163,0.43322 -1.109,-0.0161 -1.986,-1.82357 -0.958,0.14911 0.149,-0.68107 -0.595,-0.43322 -0.129,-1.44173 -2.174,-1.03168 -0.208,1.30773 -1.145,-1.17574 -0.376,0.41307 -0.92,-0.0242 -0.027,-1.2493 -0.974,-1.4115 -1.104,0.0826 -1.8,-1.43064 0.911,-0.78081 0.658,0.49367 0.422,-1.2906 0.415,0.35464 0.866,-0.58234 1.105,-1.53744 -2.877,-0.47856 -3.774,-2.06839 -1.631,-1.51024 -0.832,-2.82602 -1.57,-0.75059 -1.692,-0.57427 -2.101,2.22556 -0.793,-0.14407 -1.139,0.82111 -1.194,1.79233 -0.798,0.21158 -0.148,0.97626 -1.022,0.16322 -0.09,-1.01858 -0.763,-0.0574 0.095,-0.6186 0.523,0.0484 -0.52,-2.20541 -1.635,0.0826 -0.94,0.78887 L 4.804,43.59637 4.854,43.14803 4.075,42.77425 4.221,41.09374 2.909,39.00621 3.558,37.9967 3.237,37.47683 3.808,36.68594 3.497,36.20537 4.38,35.26437 4.072,34.73241 4.676,33.47807 5.234,33.72894 5.767,33.17985 7.713,29.90952 3.093,27.67892 1.49,25.92487 0,26.08002 v 0 L 0.378,25.45235 2.429,24.93047 4.944,23.47766 5.183,22.94671 5.029,22.20116 4.162,22.22026 3.485,21.35785 4.584,20.84604 4.522,19.76298 3.566,19.22397 3.727,18.61846 2.622,17.20192 3.797,15.7078 3.799,14.45246 4.738,15.00558 4.869,13.4097 3.822,13.447 3.591,12.53521 4.204,12.10804 5.319,12.6813 4.885,12.28435 5.49,11.34637 4.973,10.02453 5.857,9.55403 6.792,7.75464 8.2,7.16425 9.445,7.7486 9.774,7.00406 l 1.21,-0.13501 1.257,-1.00044 1.775,-0.0846 0.763,-0.89164 0.51,0.12997 0.104,-0.54405 1.213,-0.0655 0.863,1.05788 0.459,-0.29621 0.516,0.38386 0.544,0.99339 1.402,-0.0725 1.22,-0.72842 0.818,0.35565 0.277,0.66797 3.085,-0.2549 0.496,1.41956 1.102,0.97728 L 30.009,8.71988 29.55,7.18043 28.315,6.02584 28.132,5.19062 v 0 L 28.519,3.40836 29.905,2.61546 31.082,0 32.778,0.77879 Z" />
</svg>
